<?xml version="1.0" standalone="no"?>
<!DOCTYPE svg PUBLIC "-//W3C//DTD SVG 20010904//EN"
 "http://www.w3.org/TR/2001/REC-SVG-20010904/DTD/svg10.dtd">
<svg version="1.0" xmlns="http://www.w3.org/2000/svg"
 width="2500.000000pt" height="2500.000000pt" viewBox="0 0 2500.000000 2500.000000"
 preserveAspectRatio="xMidYMid meet">

<g transform="translate(0.000000,2500.000000) scale(0.100000,-0.100000)"
fill="#000000" stroke="none">
<path d="M11175 18084 c-240 -42 -590 -198 -1083 -481 -471 -270 -1710 -1007
-2367 -1408 -115 -70 -271 -165 -345 -210 -1089 -663 -1932 -1207 -1915 -1235
14 -23 344 -213 810 -467 771 -421 1123 -604 1266 -659 404 -156 768 -160
1174 -13 138 50 289 132 810 439 2170 1279 3350 1897 3885 2037 128 33 205 28
365 -25 338 -112 981 -397 1849 -821 159 -78 290 -141 291 -141 2 0 281 -138
621 -306 1427 -706 1881 -922 2044 -972 105 -32 236 -45 382 -39 322 13 536
133 563 315 13 86 -36 236 -94 290 -67 62 -459 270 -1229 653 -309 153 -564
279 -566 279 -1 0 -138 66 -302 146 -1410 689 -4634 2203 -5294 2486 -141 60
-304 111 -429 132 -116 20 -325 20 -436 0z"/>
<path d="M13410 15035 c-181 -41 -349 -172 -428 -335 -43 -88 -72 -204 -72
-285 0 -81 29 -197 72 -285 100 -206 330 -349 561 -350 186 0 379 92 497 239
57 71 77 107 111 201 19 54 23 85 23 190 1 111 -2 134 -27 205 -86 251 -309
420 -572 431 -66 2 -122 -1 -165 -11z"/>
<path d="M15715 14502 c-133 -40 -268 -119 -420 -244 -536 -443 -854 -652
-1205 -791 -328 -130 -618 -150 -928 -63 -385 109 -766 334 -1327 785 -289
233 -394 279 -610 268 -132 -7 -209 -34 -277 -96 -51 -47 -52 -49 -56 -114 -4
-58 0 -74 26 -131 47 -101 139 -213 352 -431 385 -396 740 -777 740 -796 0 -4
-51 -53 -113 -108 -452 -401 -873 -643 -1232 -706 -193 -34 -598 -29 -929 10
-332 40 -672 108 -1111 221 -157 40 -197 47 -315 51 -165 7 -254 -7 -349 -52
-281 -135 -259 -437 49 -665 86 -64 133 -84 414 -179 325 -110 459 -163 631
-246 327 -159 480 -297 540 -488 85 -269 143 -715 245 -1877 94 -1076 138
-1442 205 -1704 40 -158 62 -183 190 -217 92 -24 302 -33 400 -18 89 14 188
46 220 71 105 82 229 623 466 2028 33 195 89 528 125 740 35 212 71 421 79
465 8 44 31 163 49 265 85 455 135 650 203 785 85 168 296 467 561 795 47 58
87 107 89 109 9 12 18 -22 44 -176 60 -352 143 -1038 229 -1878 220 -2155 318
-2869 423 -3099 27 -58 33 -62 152 -88 82 -17 430 -17 510 1 90 20 109 33 135
92 96 225 181 831 385 2764 81 764 131 1224 150 1375 8 63 24 189 35 280 46
363 115 780 129 780 3 -1 63 -71 133 -158 366 -454 553 -732 616 -917 44 -130
132 -539 196 -915 8 -47 24 -137 35 -200 11 -63 66 -385 121 -715 55 -330 110
-652 121 -715 11 -63 24 -137 29 -165 94 -552 220 -1126 289 -1314 41 -111 67
-145 137 -170 172 -65 490 -62 651 6 63 26 108 163 157 478 47 298 73 554 171
1675 91 1032 165 1524 260 1709 39 78 146 184 264 263 187 125 417 225 881
383 124 43 253 90 287 105 126 57 268 192 326 310 28 56 32 75 32 145 0 70 -4
87 -30 134 -74 135 -225 200 -460 201 -133 0 -211 -13 -465 -79 -818 -210
-1620 -287 -2015 -191 -375 91 -788 345 -1244 767 l-64 59 159 174 c87 96 291
309 452 475 162 165 311 326 332 358 136 203 124 469 -25 562 -61 38 -158 44
-250 17z"/>
<path d="M10345 13744 c-374 -83 -592 -477 -462 -836 36 -98 73 -156 151 -233
348 -344 935 -182 1056 291 38 149 19 322 -52 457 -39 75 -171 211 -243 251
-135 75 -308 102 -450 70z"/>
<path d="M16485 13744 c-114 -22 -227 -84 -316 -173 -194 -194 -242 -481 -123
-729 52 -108 179 -235 286 -286 106 -51 200 -69 318 -63 165 9 289 65 411 186
251 250 251 641 -1 892 -153 153 -360 216 -575 173z"/>
<path d="M7045 11240 c-22 -36 -9 -1961 15 -2150 12 -91 59 -192 125 -267 25
-29 110 -105 188 -170 78 -64 201 -167 272 -228 461 -393 1046 -857 1312
-1043 127 -88 262 -172 277 -172 4 0 5 39 2 88 -3 48 -8 146 -11 217 -35 811
-138 1907 -216 2305 -42 210 -113 384 -209 512 -104 138 -288 285 -504 403
-290 158 -1140 515 -1226 515 -10 0 -21 -4 -25 -10z"/>
</g>
</svg>
